#!OML:ASF F:\VICON\USERDATA\INSTALL\rory3\rory3.ASF
:FULLY-SPECIFIED
:DEGREES
4186
root -1.73512 17.4505 -0.556847 7.3547 -24.8454 7.84148
lowerback 7.41143 -9.17418 -4.05769
upperback 3.68028 -12.647 9.40733
thorax 2.92017 -6.81407 12.7244
lowerneck -21.9915 14.3158 -3.73499
upperneck 16.1698 22.4346 -7.66384
head 9.17653 9.41032 1.1713
rclavicle 3.02153e-014 -4.29375e-014
rhumerus -40.932 -27.3839 -24.7684
rradius 38.5442
rwrist 25.4908
rhand -37.8315 2.99169
rfingers 7.12502
rthumb -10.8767 -26.7066
lclavicle 3.02153e-014 -4.29375e-014
lhumerus 37.8203 -25.8625 58.721
lradius 44.9663
lwrist -10.4432
lhand -19.8855 22.9721
lfingers 7.12502
lthumb 6.45032 52.8539
rfemur -35.8662 7.91954 4.21647
rtibia 43.4722
rfoot -13.3282 3.90914
rtoes 4.18797
lfemur -21.0946 13.3979 -24.4002
ltibia 32.0725
lfoot -14.7312 11.2282
ltoes -17.352
4187
root -1.74663 17.4514 -0.582331 7.18384 -23.4909 7.56637
lowerback 7.70153 -9.07779 -4.31003
upperback 3.4754 -12.5188 9.51007
thorax 2.59154 -6.73965 13.0643
lowerneck -22.0953 14.2061 -4.07474
upperneck 16.2896 22.4261 -7.71977
head 9.20878 9.36359 1.2063
rclavicle 1.12115e-013 1.59028e-015
rhumerus -40.2006 -26.3661 -25.3217
rradius 38.8513
rwrist 25.4262
rhand -38.4005 2.9194
rfingers 7.12502
rthumb -11.4255 -26.7493
lclavicle 1.12115e-013 1.59028e-015
lhumerus 35.4544 -25.8048 60.5993
lradius 45.1334
lwrist -10.5048
lhand -19.7697 23.0414
lfingers 7.12502
lthumb 6.56211 52.9197
rfemur -35.0828 7.46334 4.62098
rtibia 43.4207
rfoot -13.7611 3.35559
rtoes 4.44105
lfemur -20.9975 12.7512 -23.9228
ltibia 32.2034
lfoot -14.6766 10.6739
ltoes -17.9035
4188
root -1.75989 17.4515 -0.607337 6.99612 -22.0063 7.24164
lowerback 8.20866 -9.0317 -4.49132
upperback 3.16066 -12.4442 9.63223
thorax 2.02769 -6.67288 13.4405
lowerneck -22.079 14.1728 -4.16694
upperneck 16.5173 22.5053 -7.97084
head 9.31466 9.3419 1.16417
rclavicle -1.19271e-014 5.08889e-014
rhumerus -39.5749 -24.7632 -25.9545
rradius 39.4157
rwrist 24.9615
rhand -38.4683 2.40044
rfingers 7.12502
rthumb -11.4909 -27.2646
lclavicle -1.19271e-014 5.08889e-014
lhumerus 32.7579 -25.5175 62.7192
lradius 45.2471
lwrist -10.892
lhand -19.5616 23.1769
lfingers 7.12502
lthumb 6.76303 53.0489
rfemur -34.2221 7.00007 5.07321
rtibia 43.3661
rfoot -14.2449 2.79225
rtoes 4.67296
lfemur -20.8791 12.0231 -23.3754
ltibia 32.3241
lfoot -14.5662 10.0679
ltoes -18.2325
4189
root -1.77214 17.4508 -0.63504 6.76627 -20.3436 6.93849
lowerback 8.26041 -8.9514 -4.40897
upperback 3.23611 -12.3192 9.409
thorax 1.97085 -6.59232 13.1461
lowerneck -22.2745 14.0531 -3.83153
upperneck 16.5461 22.2934 -8.09985
head 9.40888 9.23279 1.07124
rclavicle -1.01778e-013 8.90555e-014
rhumerus -39.4145 -24.6815 -26.5701
rradius 39.765
rwrist 25.327
rhand -38.119 2.48304
rfingers 7.12502
rthumb -11.1541 -27.2005
lclavicle -1.01778e-013 8.90555e-014
lhumerus 30.9702 -25.496 63.7628
lradius 45.3741
lwrist -10.9934
lhand -19.4747 23.4006
lfingers 7.12502
lthumb 6.84689 53.2699
rfemur -33.3005 6.43106 5.52803
rtibia 43.3081
rfoot -14.7207 2.17134
rtoes 4.52916
lfemur -20.7354 11.1327 -22.8395
ltibia 32.4019
lfoot -14.3969 9.42622
ltoes -18.6781
4190
root -1.78569 17.4522 -0.654294 6.52024 -18.8421 6.70262
lowerback 8.21724 -8.79963 -4.41091
upperback 3.34205 -12.1103 9.20026
thorax 2.00063 -6.47826 12.8967
lowerneck -22.5061 13.9045 -3.66587
upperneck 16.5361 22.0974 -8.26685
head 9.48282 9.11839 0.988575
rclavicle 4.77083e-014 -3.97569e-014
rhumerus -39.0234 -25.9554 -26.6809
rradius 39.4133
rwrist 27.0704
rhand -38.2287 3.05589
rfingers 7.12502
rthumb -11.2598 -26.6219
lclavicle 4.77083e-014 -3.97569e-014
lhumerus 29.2907 -25.4464 64.6669
lradius 45.4552
lwrist -10.9067
lhand -19.7058 23.7473
lfingers 7.12502
lthumb 6.62386 53.6237
rfemur -32.4052 5.8786 5.92383
rtibia 43.2365
rfoot -15.127 1.52169
rtoes 3.72783
lfemur -20.5692 10.4053 -22.4009
ltibia 32.4512
lfoot -14.2355 8.82639
ltoes -18.952
4191
root -1.79711 17.4537 -0.672836 6.4161 -17.3717 6.43082
lowerback 8.23451 -8.68768 -4.5004
upperback 3.27477 -11.9574 9.16619
thorax 1.88979 -6.3909 12.9221
lowerneck -22.6281 13.7695 -3.80188
upperneck 16.5649 22.0036 -8.40812
head 9.51857 9.03931 0.95797
rclavicle -1.35174e-014 1.59028e-014
rhumerus -38.3877 -26.5374 -26.8153
rradius 39.2128
rwrist 28.452
rhand -37.9062 3.06667
rfingers 7.12502
rthumb -10.9488 -26.6278
lclavicle -1.35174e-014 1.59028e-014
lhumerus 27.3484 -25.0826 65.8167
lradius 45.568
lwrist -10.634
lhand -19.548 24.2259
lfingers 7.12502
lthumb 6.77617 54.0975
rfemur -31.6731 5.19339 6.34187
rtibia 43.1711
rfoot -15.4687 1.02583
rtoes 3.40152
lfemur -20.5472 9.62262 -21.9454
ltibia 32.4745
lfoot -14.102 8.20485
ltoes -18.6158
4192
root -1.80933 17.4561 -0.691779 6.3932 -15.9271 6.1829
lowerback 8.17783 -8.48129 -4.6461
upperback 3.14323 -11.6778 9.09825
thorax 1.72046 -6.23221 12.9356
lowerneck -22.4428 13.5702 -3.76887
upperneck 16.4857 21.7326 -8.55836
head 9.47816 8.9113 0.851539
rclavicle -9.70069e-014 2.22639e-014
rhumerus -38.1756 -26.4226 -26.9972
rradius 39.4222
rwrist 29.0331
rhand -37.6276 3.2886
rfingers 7.12502
rthumb -10.68 -26.42
lclavicle -9.70069e-014 2.22639e-014
lhumerus 25.4649 -24.8108 66.9877
lradius 45.5418
lwrist -10.4195
lhand -19.3168 24.6005
lfingers 7.12502
lthumb 6.99936 54.4647
rfemur -31.066 4.46692 6.73115
rtibia 43.0958
rfoot -15.7792 0.558037
rtoes 3.19888
lfemur -20.635 8.69354 -21.5147
ltibia 32.4996
lfoot -13.9968 7.64472
ltoes -17.9225
4193
root -1.82221 17.4559 -0.710073 6.35243 -14.4805 6.03798
lowerback 8.03885 -8.23153 -4.79891
upperback 3.14213 -11.3439 8.8739
thorax 1.68641 -6.05057 12.7489
lowerneck -22.6785 13.45 -3.3343
upperneck 16.6535 21.524 -8.732
head 9.64306 8.79073 0.737938
rclavicle -2.38542e-014 -6.36111e-015
rhumerus -38.0188 -26.2161 -27.4737
rradius 39.6091
rwrist 29.071
rhand -38.6841 4.96737
rfingers 7.12502
rthumb -11.699 -24.686
lclavicle -2.38542e-014 -6.36111e-015
lhumerus 23.9606 -24.6848 67.6495
lradius 45.4695
lwrist -10.2328
lhand -19.7946 25.3554
lfingers 7.12502
lthumb 6.53813 55.2345
rfemur -30.4818 3.76265 6.99724
rtibia 42.9941
rfoot -16.0942 0.0406211
rtoes 3.26723
lfemur -20.7953 7.94069 -21.2537
ltibia 32.5916
lfoot -13.8551 7.09308
ltoes -18.6342
4194
root -1.83633 17.4579 -0.732662 6.36027 -13.093 5.73195
lowerback 7.95679 -8.08734 -4.8737
upperback 3.12864 -11.1487 8.75839
thorax 1.65463 -5.94348 12.6507
lowerneck -22.9148 13.4386 -2.9626
upperneck 16.8112 21.5234 -9.07493
head 9.82731 8.74175 0.610333
rclavicle -1.48691e-013 1.24042e-013
rhumerus -37.5532 -25.3884 -28.2538
rradius 40.1088
rwrist 28.4276
rhand -39.9383 9.09991
rfingers 7.12502
rthumb -12.9083 -20.4809
lclavicle -1.48691e-013 1.24042e-013
lhumerus 22.2452 -24.2084 68.1686
lradius 45.4158
lwrist -10.1813
lhand -20.7905 25.4205
lfingers 7.12502
lthumb 5.5766 55.3271
rfemur -29.9444 3.18891 7.43506
rtibia 42.8361
rfoot -16.4075 -0.56185
rtoes 3.19656
lfemur -21.0234 7.25628 -20.7991
ltibia 32.7687
lfoot -13.8006 6.52493
ltoes -18.7606
4195
root -1.85206 17.4615 -0.754067 6.52696 -11.7751 5.10664
lowerback 7.85058 -8.02788 -4.744
upperback 3.01073 -11.0519 8.87833
thorax 1.5626 -5.88466 12.7065
lowerneck -22.843 13.4478 -3.13481
upperneck 16.806 21.6346 -9.2642
head 9.82574 8.76217 0.586206
rclavicle -1.27222e-014 9.54166e-015
rhumerus -36.6163 -25.43 -28.3887
rradius 39.9266
rwrist 28.7579
rhand -40.2334 15.1716
rfingers 7.12502
rthumb -13.1928 -14.391
lclavicle -1.27222e-014 9.54166e-015
lhumerus 20.2443 -23.293 68.8053
lradius 45.3814
lwrist -9.96366
lhand -21.2038 25.7288
lfingers 7.12502
lthumb 5.17753 55.6455
rfemur -29.4952 2.64241 8.22827
rtibia 42.6054
rfoot -16.6608 -1.11666
rtoes 3.68621
lfemur -21.4078 6.68647 -20.0027
ltibia 33.0153
lfoot -13.7932 5.87395
ltoes -18.2478
4196
root -1.8665 17.4645 -0.770736 6.77425 -10.6125 4.42106
lowerback 7.67416 -7.83305 -4.52301
upperback 2.83555 -10.7616 8.96779
thorax 1.37312 -5.71532 12.6715
lowerneck -22.6514 13.3192 -3.33225
upperneck 16.8827 21.5217 -9.27099
head 9.79807 8.7 0.58071
rclavicle 3.49861e-014 9.54166e-015
rhumerus -35.5865 -25.1428 -29.2355
rradius 39.9979
rwrist 30.2078
rhand -39.3349 8.1235
rfingers 7.12502
rthumb -12.3265 -21.4931
lclavicle 3.49861e-014 9.54166e-015
lhumerus 18.3458 -22.3596 69.4833
lradius 45.275
lwrist -9.37386
lhand -21.3631 25.6888
lfingers 7.12502
lthumb 5.02375 55.6092
rfemur -29.1557 2.19789 9.07766
rtibia 42.3303
rfoot -16.9144 -1.64984
rtoes 3.32075
lfemur -21.903 6.25958 -19.1733
ltibia 33.3086
lfoot -13.7466 5.30205
ltoes -18.7593
